PathFileType	4	(X/Y/Z)	C:\Users\Basilio\Documents\Thesis Gigler\squatting_fais\c3dfiles\054\SJ_pre3\markers_experimental.trc
DataRate	CameraRate	NumFrames	NumMarkers	Units	OrigDataRate	OrigDataStartFrame	OrigNumFrames
200.000000	200.000000	4	61	mm	200.000000	672	1794
Frame#	Time	FHD			LBHD			RBHD			C7			T10			CLAV			LSHO			LUUPA			LMUPA			LDUPA			LLEP			LMEP			LRAD			LUL			LRFIN			RSHO			RUPA1			RMUPA			RDUPA			RLEP			RMEP			RRAD			RUL			RUFIN			LASI			RASI			USACR			LSACR			RSACR			LTHI1			LTHI2			LTHI3			LTHI4			LLFC			LMFC			LTIB1			LTIB2			LTIB3			LTIB4			LLMAL			LMMAL			LHEE			LMT1			LMT2			LMT5			RTHI			RTHI2			RTHI3			RTHI4			RLFC			RMFC			RTIB1			RTIB2			RTIB3			RTIB4			RLMAL			RMMAL			RHEE			RMT1			RMT2			RMT5			
		X1	Y1	Z1	X2	Y2	Z2	X3	Y3	Z3	X4	Y4	Z4	X5	Y5	Z5	X6	Y6	Z6	X7	Y7	Z7	X8	Y8	Z8	X9	Y9	Z9	X10	Y10	Z10	X11	Y11	Z11	X12	Y12	Z12	X13	Y13	Z13	X14	Y14	Z14	X15	Y15	Z15	X16	Y16	Z16	X17	Y17	Z17	X18	Y18	Z18	X19	Y19	Z19	X20	Y20	Z20	X21	Y21	Z21	X22	Y22	Z22	X23	Y23	Z23	X24	Y24	Z24	X25	Y25	Z25	X26	Y26	Z26	X27	Y27	Z27	X28	Y28	Z28	X29	Y29	Z29	X30	Y30	Z30	X31	Y31	Z31	X32	Y32	Z32	X33	Y33	Z33	X34	Y34	Z34	X35	Y35	Z35	X36	Y36	Z36	X37	Y37	Z37	X38	Y38	Z38	X39	Y39	Z39	X40	Y40	Z40	X41	Y41	Z41	X42	Y42	Z42	X43	Y43	Z43	X44	Y44	Z44	X45	Y45	Z45	X46	Y46	Z46	X47	Y47	Z47	X48	Y48	Z48	X49	Y49	Z49	X50	Y50	Z50	X51	Y51	Z51	X52	Y52	Z52	X53	Y53	Z53	X54	Y54	Z54	X55	Y55	Z55	X56	Y56	Z56	X57	Y57	Z57	X58	Y58	Z58	X59	Y59	Z59	X60	Y60	Z60	X61	Y61	Z61	

673	3.36	121.2788772583008	1158.549560546875	-871.8613281250002	-36.73997116088868	1117.654296875	-955.7102661132815	-64.68832397460939	1114.15869140625	-817.7297363281252	-113.7023315429688	1035.280883789063	-874.8647460937502	-390.1748657226564	853.1384277343752	-910.8423461914065	-50.87216949462892	887.183044433594	-885.3313598632815	-31.39122390747071	964.5718994140627	-1035.299194335938	-159.5006866455078	960.7463989257815	-1226.202026367188	-167.9939270019532	910.9785766601565	-1235.886840820313	-205.1093139648438	936.810729980469	-1276.133911132813	-253.8762359619141	895.1353149414065	-1301.649658203125	-315.1010131835938	948.006530761719	-1264.347534179688	-427.7124938964845	764.1463012695314	-1144.347778320313	-421.6040039062501	704.9293212890626	-1191.47216796875	-387.8425598144532	731.0449829101564	-1098.057373046875	-34.40519714355469	943.180114746094	-723.5391845703126	-198.2829132080079	924.6047973632815	-549.5799560546876	-216.372055053711	879.3162231445315	-546.6608276367189	-257.2189025878907	909.2762451171877	-513.3640136718751	-304.8900146484376	887.2749633789065	-502.091278076172	-347.8157958984376	943.5718994140627	-553.3447875976564	-465.9598083496095	765.5711059570314	-693.5344848632814	-411.0857238769532	736.7552490234376	-719.8582153320314	-460.9319763183595	705.8360595703126	-642.1231079101564	-378.1467590332032	635.3002929687501	-1036.1953125	-382.5862426757813	647.1210937500001	-775.410339355469	-472.7852172851564	797.9537353515627	-912.7266845703127	-499.3741149902345	779.4774169921877	-940.6177978515627	-501.6461791992189	780.8005371093752	-883.4400024414065	-434.2564697265626	570.0859985351564	-1177.826171875	-353.7663879394532	561.4114379882814	-1206.259155273438	-328.3282775878907	598.7559814453126	-1193.362182617188	-324.1752014160157	510.4542541503907	-1219.830810546875	-206.4092102050782	442.9332275390626	-1248.544677734375	-141.0686187744141	429.3690490722657	-1128.528198242188	-211.3840332031251	284.0436706542969	-1209.952514648438	-290.7218322753907	269.8865661621094	-1249.946533203125	-253.6603698730469	250.6671447753907	-1232.77490234375	-286.6105957031251	183.5587310791016	-1192.577514648438	-409.0387573242189	88.7678680419922	-1211.110473632813	-354.0184631347657	98.75209808349612	-1129.767456054688	-466.9988403320314	52.41796112060548	-1138.843505859375	-248.9547424316407	53.4935989379883	-1186.530029296875	-257.5905761718751	57.07601165771486	-1235.384643554688	-320.6776428222657	37.20542526245118	-1273.072998046875	-389.6414184570314	539.4042968750001	-618.0770263671876	-325.2414855957032	547.2258911132814	-598.2099609375001	-305.3698120117188	573.6740722656251	-604.6192626953126	-273.0617370605469	482.983367919922	-582.3510742187501	-226.5966796875001	439.7975158691407	-564.6935424804689	-147.2259368896485	441.1872558593751	-680.0750732421876	-208.7042083740235	333.8132934570313	-561.1324462890626	-314.7666931152344	303.4096374511719	-561.2299804687501	-275.7418823242188	277.2627868652344	-560.3823852539064	-280.3318176269532	227.3969879150391	-587.4047241210939	-410.8917846679689	92.49452972412111	-602.1530151367189	-351.6210937500001	99.31455230712893	-675.1947021484376	-464.7340393066407	50.897274017334	-674.8812866210939	-245.5586547851563	50.89736557006837	-616.5068359375001	-260.0570983886719	55.33008193969728	-570.9088134765626	-320.2218933105469	34.6775131225586	-537.9902954101564	
674	3.365	121.4463729858399	1158.561889648438	-871.5679321289065	-36.30735778808594	1117.821655273438	-955.4173583984377	-64.48870086669923	1114.155883789063	-817.4963989257815	-113.4510726928711	1035.3603515625	-874.6231689453127	-389.7329406738282	853.3354492187502	-910.8510742187502	-50.43218231201173	887.2053833007815	-885.1273193359377	-31.05525016784669	964.6940917968752	-1035.133056640625	-158.898681640625	960.9666137695315	-1226.096313476563	-167.4992980957032	911.1229248046877	-1235.709838867188	-204.5020446777344	937.0717773437502	-1276.111694335938	-253.3457183837891	895.3377075195315	-1301.560791015625	-314.6261901855469	948.2612304687502	-1264.18701171875	-427.2755432128907	764.2806396484376	-1144.461059570313	-420.7832946777345	704.9740600585939	-1191.568237304688	-387.5615234375001	731.2015380859376	-1098.083129882813	-34.09775543212891	943.1306762695315	-723.2548828125001	-198.0781250000001	924.5960693359377	-549.4132080078126	-216.1332550048829	879.311218261719	-546.6047363281251	-256.8707275390626	909.3214111328127	-513.1881713867189	-304.7515563964844	887.3205566406252	-502.0306396484376	-347.5544738769532	943.6455078125002	-553.2751464843751	-465.7884521484376	765.7556762695314	-693.5902099609376	-411.0225219726564	737.0465087890626	-719.9264526367189	-460.7864379882814	705.9953002929689	-642.1716308593751	-378.0016784667969	635.5410766601564	-1036.229125976563	-381.7508850097657	647.6534423828126	-775.5509033203127	-472.4705200195314	798.219177246094	-912.8063964843752	-498.9823303222657	779.7678833007815	-940.743591308594	-501.0128479003907	781.0749511718752	-883.5058593750002	-434.0484008789064	570.3229370117189	-1177.90283203125	-353.6748046875001	561.5951538085939	-1206.306762695313	-328.0948181152344	598.8450927734376	-1193.4345703125	-324.0182495117188	510.5537414550782	-1219.917602539063	-206.2732238769532	442.9252319335939	-1248.572631835938	-140.9158935546875	429.4165039062501	-1128.584228515625	-211.3587036132813	284.0315856933594	-1209.932373046875	-290.7478637695313	269.8777465820313	-1249.967407226563	-253.6267089843751	250.6235504150391	-1232.817504882813	-286.6134033203126	183.5594482421875	-1192.573486328125	-409.0494079589845	88.78640747070314	-1211.096801757813	-354.0139160156251	98.757926940918	-1129.772705078125	-466.9717712402345	52.43277740478517	-1138.848876953125	-248.9889526367188	53.47000122070314	-1186.488891601563	-257.6288452148438	57.06335830688478	-1235.368041992188	-320.7438354492188	37.14628601074219	-1273.043090820313	-389.5054321289064	539.6652832031251	-618.1579589843751	-325.1939086914063	547.3331298828126	-598.2545166015626	-305.2381591796876	573.8206176757814	-604.7045288085939	-273.0831909179688	483.0882263183595	-582.4255371093751	-226.6358795166016	439.8246154785157	-564.7160034179689	-147.2269287109375	441.1809997558595	-680.1040039062501	-208.7597351074219	333.8415527343751	-561.1867065429689	-314.8221130371094	303.4226684570313	-561.2580566406251	-275.7678527832032	277.2826843261719	-560.4405517578126	-280.3228454589844	227.3901367187501	-587.4052734375001	-410.8927307128907	92.47367095947267	-602.1539916992189	-351.6363220214844	99.2974548339844	-675.1890869140626	-464.7245178222657	50.88378524780275	-674.8786010742189	-245.6940917968751	51.03695678710939	-616.5037841796876	-260.0690917968751	55.32484054565431	-570.9204101562501	-320.2176208496094	34.67460250854493	-537.9852294921876	
675	3.37	121.7276763916016	1158.59521484375	-871.267761230469	-36.46028137207032	1117.985595703125	-954.7395629882815	-63.99404525756837	1114.183837890625	-817.2738037109377	-112.9181518554688	1035.384765625	-874.3983154296877	-389.4766235351564	853.5908203125002	-910.8753051757815	-50.22691345214845	887.2824707031252	-884.957946777344	-30.70993995666505	964.8298950195315	-1034.876831054688	-158.5619354248047	961.2712402343752	-1225.884765625	-167.089340209961	911.336120605469	-1235.522338867188	-204.3661499023438	936.757751464844	-1275.180419921875	-252.9935607910157	895.5554199218752	-1301.303344726563	-314.2482604980469	948.5405883789065	-1263.997680664063	-426.7565307617189	764.4358520507814	-1144.547241210938	-420.5866699218751	705.3344726562501	-1191.584228515625	-387.2617492675782	731.3953857421876	-1098.082275390625	-33.75086975097657	943.1900634765627	-723.0643920898439	-197.884750366211	924.5818481445315	-549.2476806640626	-216.0105438232422	879.3280029296877	-546.4472656250001	-256.5774536132813	909.3574218750002	-513.0574951171876	-304.5889587402344	887.347351074219	-501.9356994628907	-347.1971435546876	943.7141723632815	-553.2517089843751	-465.5090637207032	765.9191284179689	-693.5993652343751	-410.7630615234376	737.2841186523439	-720.0181884765626	-460.6900634765626	706.1260986328126	-642.2129516601564	-377.6817016601563	635.7459716796876	-1036.349853515625	-381.3693542480469	647.9297485351564	-775.6765747070315	-472.1028747558595	798.5455322265627	-912.8987426757815	-498.590301513672	780.0053710937502	-940.8237915039065	-500.642059326172	781.373229980469	-883.6995849609377	-433.4692382812501	570.2996215820314	-1177.934204101563	-353.5458984375001	561.7196044921876	-1206.424560546875	-327.8963012695313	598.9816894531251	-1193.55029296875	-323.8622436523438	510.6731567382814	-1220.009033203125	-206.1450500488282	442.9414367675782	-1248.6669921875	-140.848373413086	429.2561340332032	-1128.662475585938	-211.2885131835938	284.0611572265626	-1210.009765625	-290.6412658691407	269.8726196289063	-1250.007690429688	-253.5938110351563	250.592025756836	-1232.826293945313	-286.6072387695313	183.5413665771485	-1192.576538085938	-409.0801696777345	88.81935119628908	-1211.116577148438	-353.9948730468751	98.80908203125003	-1129.772094726563	-466.9787902832032	52.43349456787111	-1138.844848632813	-248.9859771728516	53.49130249023439	-1186.475952148438	-257.6244812011719	57.07835006713869	-1235.372314453125	-320.5994262695313	37.07605361938477	-1273.086547851563	-389.433319091797	539.7744140625001	-618.2551269531251	-325.0639648437501	547.4906005859376	-598.3855590820314	-305.2018432617188	573.9342041015626	-604.7614135742189	-273.0248413085938	483.1687011718751	-582.4797973632814	-226.6310119628907	439.8476562500001	-564.8074951171876	-147.2223358154297	441.1856079101564	-680.0999145507814	-208.7965850830079	333.8693237304688	-561.1908569335939	-314.8031921386719	303.4523925781251	-561.2971801757814	-275.7671508789063	277.2641906738282	-560.4365234375001	-280.3586120605469	227.4163818359376	-587.4254760742189	-410.9012145996095	92.48079681396486	-602.1839599609376	-351.6400451660157	99.29553985595706	-675.2036132812501	-464.7173461914064	50.90109252929689	-674.8886718750001	-245.5604095458985	50.89760971069337	-616.5073242187501	-260.0548400878907	55.32568359375001	-570.9067382812501	-320.2286987304688	34.68140411376954	-537.9938354492189	
676	3.375	122.2857742309571	1158.793701171875	-871.0081176757815	-36.2860221862793	1118.016723632813	-954.4250488281252	-63.71948242187501	1114.2197265625	-816.8985595703127	-112.3622055053711	1035.4794921875	-874.3059082031252	-389.1430053710939	853.8362426757815	-910.8997802734377	-49.90531158447267	887.520935058594	-884.778747558594	-30.40693664550782	964.993835449219	-1034.705932617188	-158.7220306396485	961.6582641601565	-1225.567504882813	-166.6086578369141	911.5786743164065	-1235.311767578125	-202.5779418945313	937.303161621094	-1276.289306640625	-252.3651580810547	895.7550048828127	-1301.248413085938	-313.8576660156251	948.8281860351565	-1263.964111328125	-426.3341064453126	764.6429443359376	-1144.578857421875	-420.2031860351564	705.5333251953126	-1191.630126953125	-386.8705139160157	731.5852661132814	-1098.15576171875	-33.48501586914063	943.1956787109377	-722.7835083007814	-197.6300811767579	924.5853271484377	-549.1248779296876	-215.4917449951172	879.3728027343752	-546.4241943359376	-256.4149169921876	909.3557739257815	-512.8140869140626	-304.3371887207032	887.3523559570315	-501.9017944335939	-347.0218200683594	943.7637939453127	-553.1402587890626	-465.3290405273439	766.0670166015626	-693.6013793945314	-410.2369079589845	737.7670288085939	-719.7380371093751	-460.5918884277345	706.3292846679689	-642.2295532226564	-377.4899291992188	635.9153442382814	-1036.317016601563	-385.2815856933595	646.7457885742189	-775.1265258789065	-471.912811279297	798.8860473632815	-912.9266357421877	-499.7510070800782	780.7585449218752	-940.6096191406252	-503.0667724609376	782.4114379882815	-883.329040527344	-433.3031005859376	570.5776367187501	-1178.065063476563	-353.3448791503907	561.9196166992189	-1206.545532226563	-327.6432189941407	599.0566406250001	-1193.604614257813	-323.7324829101563	510.8562622070314	-1220.100219726563	-206.0845336914063	442.9158325195314	-1248.666015625	-140.7217407226563	429.3118896484376	-1128.640014648438	-211.3065643310547	284.1542663574219	-1209.958984375	-290.6625061035157	269.8274536132813	-1250.031860351563	-253.5107879638672	250.617172241211	-1232.81494140625	-286.5492553710938	183.5435791015625	-1192.56884765625	-409.0419311523439	88.85131072998048	-1211.110595703125	-353.9942321777344	98.80798339843753	-1129.76953125	-466.9432983398439	52.43773651123048	-1138.813842773438	-248.9391784667969	53.44862365722658	-1186.495971679688	-257.5750122070313	57.09948348999025	-1235.362548828125	-320.6484375000001	37.08980941772462	-1273.088256835938	-389.3724060058595	539.8816528320314	-618.3269042968751	-325.0056762695313	547.6547241210939	-598.4888305664064	-305.1642761230469	574.0393066406251	-604.8073730468751	-273.0551757812501	483.2346801757814	-582.4923706054689	-226.8459777832032	439.9185180664064	-564.4344482421876	-147.2100524902344	441.1837463378907	-680.0978393554689	-208.8541564941407	333.8976135253907	-561.2211914062501	-314.8030395507813	303.4766540527344	-561.3317260742189	-275.8122558593751	277.3237304687501	-560.4650878906251	-280.3640441894532	227.4124755859376	-587.4239501953126	-410.9161071777345	92.46268463134767	-602.1914062500001	-351.7172851562501	99.28565216064456	-675.2130126953126	-464.7347412109376	50.8647804260254	-674.9159545898439	-245.5613861083985	50.86084365844728	-616.5037841796876	-260.0923156738282	55.31840133666994	-570.8923950195314	-320.2266845703126	34.67987442016602	-537.9925537109376	
